<svg width="248" height="72" viewBox="0 0 248 72" fill="none" xmlns="http://www.w3.org/2000/svg">
<path d="M38.736 19.64V53H33.264V30.152L23.088 53H19.296L9.072 30.152V53H3.6V19.64H9.504L21.216 45.8L32.88 19.64H38.736ZM57.4001 53.432C54.9041 53.432 52.6481 52.872 50.6321 51.752C48.6161 50.6 47.0321 49 45.8801 46.952C44.7281 44.872 44.1521 42.472 44.1521 39.752C44.1521 37.064 44.7441 34.68 45.9281 32.6C47.1121 30.52 48.7281 28.92 50.7761 27.8C52.8241 26.68 55.1121 26.12 57.6401 26.12C60.1681 26.12 62.4561 26.68 64.5041 27.8C66.5521 28.92 68.1681 30.52 69.3521 32.6C70.5361 34.68 71.1281 37.064 71.1281 39.752C71.1281 42.44 70.5201 44.824 69.3041 46.904C68.0881 48.984 66.4241 50.6 64.3121 51.752C62.2321 52.872 59.9281 53.432 57.4001 53.432ZM57.4001 48.68C58.8081 48.68 60.1201 48.344 61.3361 47.672C62.5841 47 63.5921 45.992 64.3601 44.648C65.1281 43.304 65.5121 41.672 65.5121 39.752C65.5121 37.832 65.1441 36.216 64.4081 34.904C63.6721 33.56 62.6961 32.552 61.4801 31.88C60.2641 31.208 58.9521 30.872 57.5441 30.872C56.1361 30.872 54.8241 31.208 53.6081 31.88C52.4241 32.552 51.4801 33.56 50.7761 34.904C50.0721 36.216 49.7201 37.832 49.7201 39.752C49.7201 42.6 50.4401 44.808 51.8801 46.376C53.3521 47.912 55.1921 48.68 57.4001 48.68ZM88.0095 53.432C85.5135 53.432 83.2575 52.872 81.2415 51.752C79.2255 50.6 77.6415 49 76.4895 46.952C75.3375 44.872 74.7615 42.472 74.7615 39.752C74.7615 37.064 75.3535 34.68 76.5375 32.6C77.7215 30.52 79.3375 28.92 81.3855 27.8C83.4335 26.68 85.7215 26.12 88.2495 26.12C90.7775 26.12 93.0655 26.68 95.1135 27.8C97.1615 28.92 98.7775 30.52 99.9615 32.6C101.146 34.68 101.738 37.064 101.738 39.752C101.738 42.44 101.13 44.824 99.9135 46.904C98.6975 48.984 97.0335 50.6 94.9215 51.752C92.8415 52.872 90.5375 53.432 88.0095 53.432ZM88.0095 48.68C89.4175 48.68 90.7295 48.344 91.9455 47.672C93.1935 47 94.2015 45.992 94.9695 44.648C95.7375 43.304 96.1215 41.672 96.1215 39.752C96.1215 37.832 95.7535 36.216 95.0175 34.904C94.2815 33.56 93.3055 32.552 92.0895 31.88C90.8735 31.208 89.5615 30.872 88.1535 30.872C86.7455 30.872 85.4335 31.208 84.2175 31.88C83.0335 32.552 82.0895 33.56 81.3855 34.904C80.6815 36.216 80.3295 37.832 80.3295 39.752C80.3295 42.6 81.0495 44.808 82.4895 46.376C83.9615 47.912 85.8015 48.68 88.0095 48.68ZM120.491 26.12C122.571 26.12 124.427 26.552 126.059 27.416C127.723 28.28 129.019 29.56 129.947 31.256C130.875 32.952 131.339 35 131.339 37.4V53H125.915V38.216C125.915 35.848 125.323 34.04 124.139 32.792C122.955 31.512 121.339 30.872 119.291 30.872C117.243 30.872 115.611 31.512 114.395 32.792C113.211 34.04 112.619 35.848 112.619 38.216V53H107.147V26.552H112.619V29.576C113.515 28.488 114.651 27.64 116.027 27.032C117.435 26.424 118.923 26.12 120.491 26.12Z" fill="#9B9DFF"/>
<path d="M159.512 53L148.184 38.12V53H139.976V19.304H148.184V34.088L159.416 19.304H169.064L156.008 35.816L169.544 53H159.512ZM185.637 53.384C183.013 53.384 180.645 52.824 178.533 51.704C176.453 50.584 174.805 48.984 173.589 46.904C172.405 44.824 171.813 42.392 171.813 39.608C171.813 36.856 172.421 34.44 173.637 32.36C174.853 30.248 176.517 28.632 178.629 27.512C180.741 26.392 183.109 25.832 185.733 25.832C188.357 25.832 190.725 26.392 192.837 27.512C194.949 28.632 196.613 30.248 197.829 32.36C199.045 34.44 199.653 36.856 199.653 39.608C199.653 42.36 199.029 44.792 197.781 46.904C196.565 48.984 194.885 50.584 192.741 51.704C190.629 52.824 188.261 53.384 185.637 53.384ZM185.637 46.28C187.205 46.28 188.533 45.704 189.621 44.552C190.741 43.4 191.301 41.752 191.301 39.608C191.301 37.464 190.757 35.816 189.669 34.664C188.613 33.512 187.301 32.936 185.733 32.936C184.133 32.936 182.805 33.512 181.749 34.664C180.693 35.784 180.165 37.432 180.165 39.608C180.165 41.752 180.677 43.4 181.701 44.552C182.757 45.704 184.069 46.28 185.637 46.28ZM214.903 53.384C212.567 53.384 210.487 52.984 208.663 52.184C206.839 51.384 205.399 50.296 204.343 48.92C203.287 47.512 202.695 45.944 202.567 44.216H210.679C210.775 45.144 211.207 45.896 211.975 46.472C212.743 47.048 213.687 47.336 214.807 47.336C215.831 47.336 216.615 47.144 217.159 46.76C217.735 46.344 218.023 45.816 218.023 45.176C218.023 44.408 217.623 43.848 216.823 43.496C216.023 43.112 214.727 42.696 212.935 42.248C211.015 41.8 209.415 41.336 208.135 40.856C206.855 40.344 205.751 39.56 204.823 38.504C203.895 37.416 203.431 35.96 203.431 34.136C203.431 32.6 203.847 31.208 204.679 29.96C205.543 28.68 206.791 27.672 208.423 26.936C210.087 26.2 212.055 25.832 214.327 25.832C217.687 25.832 220.327 26.664 222.247 28.328C224.199 29.992 225.319 32.2 225.607 34.952H218.023C217.895 34.024 217.479 33.288 216.775 32.744C216.103 32.2 215.207 31.928 214.087 31.928C213.127 31.928 212.391 32.12 211.879 32.504C211.367 32.856 211.111 33.352 211.111 33.992C211.111 34.76 211.511 35.336 212.311 35.72C213.143 36.104 214.423 36.488 216.151 36.872C218.135 37.384 219.751 37.896 220.999 38.408C222.247 38.888 223.335 39.688 224.263 40.808C225.223 41.896 225.719 43.368 225.751 45.224C225.751 46.792 225.303 48.2 224.407 49.448C223.543 50.664 222.279 51.624 220.615 52.328C218.983 53.032 217.079 53.384 214.903 53.384ZM245.701 46.04V53H241.525C238.549 53 236.229 52.28 234.565 50.84C232.901 49.368 232.069 46.984 232.069 43.688V33.032H228.805V26.216H232.069V19.688H240.277V26.216H245.653V33.032H240.277V43.784C240.277 44.584 240.469 45.16 240.853 45.512C241.237 45.864 241.877 46.04 242.773 46.04H245.701Z" fill="#FFD87D"/>
</svg>
