<svg width="48" height="48" viewBox="0 0 48 48" fill="none" xmlns="http://www.w3.org/2000/svg">
<circle cx="24" cy="24" r="24" fill="url(#paint0_linear_1118_151)"/>
<path d="M27.5996 41.6H19.5996V40H27.5996V41.6ZM25.9996 38.4H21.1996V36.8H25.9996V38.4ZM33.9996 18.4V20.8H35.5996V22.4H33.9996V34.4C33.9996 34.8104 33.6908 35.1488 33.2932 35.1944L33.1996 35.2H13.9996C13.5892 35.2 13.2508 34.8912 13.2052 34.4936L13.1996 34.4V22.4H11.5996V20.8H32.3996V18.4H33.9996ZM32.3996 22.4H14.7996V33.6H20.3996V27.2C20.3996 26.7896 20.7084 26.4512 21.106 26.4056L21.1996 26.4H25.9996C26.41 26.4 26.7484 26.7088 26.794 27.1064L26.7996 27.2V33.6H32.3996V22.4ZM25.1996 28H21.9996V33.6H25.1996V28ZM29.9996 24C30.4412 24 30.7996 24.3584 30.7996 24.8C30.7996 25.2416 30.4412 25.6 29.9996 25.6C29.558 25.6 29.1996 25.2416 29.1996 24.8C29.1996 24.3584 29.558 24 29.9996 24Z" fill="#FFD164"/>
<path d="M33.0029 18.5H13.9971L23.5 7.52637L33.0029 18.5Z" stroke="#FFD164" stroke-width="2"/>
<defs>
<linearGradient id="paint0_linear_1118_151" x1="24" y1="0" x2="24" y2="48" gradientUnits="userSpaceOnUse">
<stop stop-color="#696CFF"/>
<stop offset="1" stop-color="#6062E8"/>
</linearGradient>
</defs>
</svg>
